<?xml version="1.0" encoding="utf-8"?>
<!-- Generator: Adobe Illustrator 18.1.1, SVG Export Plug-In . SVG Version: 6.00 Build 0)  -->
<!DOCTYPE svg PUBLIC "-//W3C//DTD SVG 1.1//EN" "http://www.w3.org/Graphics/SVG/1.1/DTD/svg11.dtd">
<svg version="1.1" id="Layer_1" xmlns="http://www.w3.org/2000/svg" xmlns:xlink="http://www.w3.org/1999/xlink" x="0px" y="0px"
	 viewBox="0 0 40 40" enable-background="new 0 0 40 40" xml:space="preserve">
<path fill="#66BDA4" d="M23.2,23v5c1.7-0.2,2.6-1,2.6-2.3v-0.1C25.8,24.5,25.2,23.7,23.2,23 M19.7,16.9V12c-1.8,0.2-2.6,1.1-2.6,2.2
	v0.1C17.2,15.4,17.7,16.2,19.7,16.9 M19.5,32.4c-3.2-0.4-6.3-1.6-8.7-3.4l2.9-4.1c2,1.5,3.8,2.5,6,2.9v-5.7c-5.3-1.4-8-3.3-8-7.6
	v-0.1c0-3.9,3.1-6.5,7.8-7V5.5h3.8v2.2c2.6,0.3,4.8,1.2,6.9,2.6l-2.5,4.2c-1.5-1-3.1-1.7-4.6-2.1v5.4c5.6,1.5,8,3.6,8,7.6v0.1
	c0,4-3.2,6.6-7.8,7V36h-3.8V32.4z"/>
</svg>
