<?xml version="1.0" encoding="utf-8"?>
<!-- Generator: Adobe Illustrator 18.1.1, SVG Export Plug-In . SVG Version: 6.00 Build 0)  -->
<!DOCTYPE svg PUBLIC "-//W3C//DTD SVG 1.1//EN" "http://www.w3.org/Graphics/SVG/1.1/DTD/svg11.dtd">
<svg version="1.1" xmlns="http://www.w3.org/2000/svg" xmlns:xlink="http://www.w3.org/1999/xlink" x="0px" y="0px"
	 viewBox="0 0 24 24" enable-background="new 0 0 24 24" xml:space="preserve">
<g id="Template" display="none">
	<path id="Bounding_Box_5_" display="inline" fill="#5389A4" fill-opacity="0.502" d="M0,0h24v24H0V0z M2,2v20h20V2H2z"/>
</g>
<g id="Icons">
	<g id="Close_2">
	</g>
	<g>
		<path d="M20.2,6.5c1,0,1.8-0.8,1.8-1.8c0-1-0.8-1.8-1.8-1.8h-2.9c-1,0-1.8,0.8-1.8,1.8c0,1,0.8,1.8,1.8,1.8h1.1
			v8.3h-2.1l-0.8,3.7c0,0-6.7,0-9.7,0c-1,0-2,0-3,0c-0.4,0-0.7,0.3-0.7,0.7c0,0.2,0,0.3,0,0.5c0,0.6,0.3,0.8,0.8,0.8
			c0.6,0,1.3,0,1.9,0c0.2,0.9,0.7,1.4,1.4,1.4c0.7,0,1.2-0.5,1.4-1.4c3.2,0,6.5,0,9.7,0c0-1.1,0.7-2.3,1.8-2.3h2.1v-0.9h-1.9V6.5
			H20.2z M19.2,3.7h1c0.6,0,1,0.5,1,1c0,0.6-0.5,1-1,1h-1V3.7z M17.3,5.8c-0.6,0-1-0.5-1-1c0-0.6,0.5-1,1-1h1.1v2.1H17.3z"/>
		<path d="M19.4,18.7c-0.8,0-1.5,0.7-1.5,1.5c0,0.8,0.7,1.5,1.5,1.5c0.8,0,1.5-0.7,1.5-1.5
			C20.9,19.4,20.2,18.7,19.4,18.7z"/>
	</g>
</g>
<g id="Names" display="none">
</g>
<g id="Numbers" display="none">
</g>
</svg>
