<?xml version="1.0" encoding="utf-8"?>
<!-- Generator: Adobe Illustrator 18.1.1, SVG Export Plug-In . SVG Version: 6.00 Build 0)  -->
<!DOCTYPE svg PUBLIC "-//W3C//DTD SVG 1.1//EN" "http://www.w3.org/Graphics/SVG/1.1/DTD/svg11.dtd">
<svg version="1.1" xmlns="http://www.w3.org/2000/svg" xmlns:xlink="http://www.w3.org/1999/xlink" x="0px" y="0px"
	 viewBox="0 0 24 24" enable-background="new 0 0 24 24" xml:space="preserve">
<g id="Template" display="none">
	<path id="Bounding_Box_1_" display="inline" fill="#5389A4" fill-opacity="0.502" d="M0,0h24v24H0V0z M2,2v20h20V2H2z"/>
</g>
<g id="Icons">
	<g id="Close_2">
	</g>
	<path d="M4.1,6.9L5,5.4c0-0.1,0.1-0.1,0.2-0.1h5.4c0.1,0,0.2,0,0.2,0.1L11.8,7c0,0,0,0,0,0c0,0,0,0,0,0
		c0,0,0,0.1,0,0.1v0v1.4l1.9-1.8l0,0c0.4-0.6,1.1-1,1.8-0.9c1,0.1,1.7,1.1,1.6,2.1l-0.9,6.2l0,0l2.6,6.6c0.2,0.6,0,1.3-0.6,1.5
		c-0.6,0.2-1.2,0-1.5-0.6l-2.4-5.8l-1,5.8c-0.1,0.6-0.7,1-1.3,0.9c-0.6-0.1-1-0.7-0.9-1.4l1.4-7.5h0l0.5-3.6l-1.3,1.2v1.5
		c0,0.1-0.1,0.3-0.3,0.3H4.3c-0.1,0-0.3-0.1-0.3-0.3V7.1c0,0,0,0,0,0C4,7,4,7,4.1,6.9z M7.7,5.8H5.3l-0.6,1h2.9V5.8z M10.5,5.8H8.2
		v1h2.9L10.5,5.8z M4.5,12.4h6.8v-0.8H7.8H7.7c-0.6,0-1-0.5-1-1c0-0.5,0.4-1,1-1h2.9L11.3,9V7.3H4.5V12.4L4.5,12.4z M15.4,5.5
		c-1,0-1.8-0.8-1.8-1.8c0-1,0.8-1.8,1.8-1.8c1,0,1.8,0.8,1.8,1.8C17.1,4.7,16.4,5.5,15.4,5.5z"/>
</g>
<g id="Names" display="none">
</g>
<g id="Numbers" display="none">
</g>
</svg>
