<?xml version="1.0" encoding="utf-8"?>
<!-- Generator: Adobe Illustrator 18.1.1, SVG Export Plug-In . SVG Version: 6.00 Build 0)  -->
<!DOCTYPE svg PUBLIC "-//W3C//DTD SVG 1.1//EN" "http://www.w3.org/Graphics/SVG/1.1/DTD/svg11.dtd">
<svg version="1.1" xmlns="http://www.w3.org/2000/svg" xmlns:xlink="http://www.w3.org/1999/xlink" x="0px" y="0px"
	 viewBox="0 0 24 24" enable-background="new 0 0 24 24" xml:space="preserve">
<g id="Template" display="none">
	<path id="Bounding_Box" display="inline" fill="#5389A4" fill-opacity="0.502" d="M0,0h24v24H0V0z M2,2v20h20V2H2z"/>
	<ellipse id="Circle" fill="#5389A4" cx="12" cy="12" rx="10" ry="10"/>
	<path id="Circle_Outline" fill="#5389A4" d="M12,2c5.5,0,10,4.5,10,10c0,5.5-4.5,10-10,10C6.5,22,2,17.5,2,12C2,6.5,6.5,2,12,2z
		 M12,4c-4.4,0-8,3.6-8,8c0,4.4,3.6,8,8,8c4.4,0,8-3.6,8-8C20,7.6,16.4,4,12,4z"/>
	<path id="Box" fill="#5389A4" d="M4,2h16c1.1,0,2,0.9,2,2v16c0,1.1-0.9,2-2,2H4c-1.1,0-2-0.9-2-2V4C2,2.9,2.9,2,4,2z"/>
	<path id="Box_Outline" fill="#5389A4" d="M4,2h16c1.1,0,2,0.9,2,2v16c0,1.1-0.9,2-2,2H4c-1.1,0-2-0.9-2-2V4C2,2.9,2.9,2,4,2z M4,4
		v16h16V4H4z"/>
	<path id="Off__x28_Unite_x29_" fill="#5389A4" d="M0.9-0.9l24,24l-1.3,1.3l-24-24L0.9-0.9z"/>
	<path id="Off__x28_Minus_Front_x29_" fill="#5389A4" d="M2,5.3L3.3,4L20,20.7L18.7,22L2,5.3z"/>
</g>
<g id="Icons">
	<g id="Close_2">
	</g>
	<g>
		<path d="M3,5v11h18V5H3z M7.2,14.7H6.4V6.6h0.8V14.7z M11.9,14.7h-0.8V6.6h0.8V14.7z M16.8,14.7H16V6.6h0.8V14.7z"
			/>
		<rect x="3" y="17.7" width="18" height="1.7"/>
	</g>
</g>
<g id="Names" display="none">
</g>
<g id="Numbers" display="none">
</g>
</svg>
