<?xml version="1.0" encoding="utf-8"?>
<!-- Generator: Adobe Illustrator 18.1.1, SVG Export Plug-In . SVG Version: 6.00 Build 0)  -->
<!DOCTYPE svg PUBLIC "-//W3C//DTD SVG 1.1//EN" "http://www.w3.org/Graphics/SVG/1.1/DTD/svg11.dtd">
<svg version="1.1" xmlns="http://www.w3.org/2000/svg" xmlns:xlink="http://www.w3.org/1999/xlink" x="0px" y="0px"
	 viewBox="0 0 24 24" enable-background="new 0 0 24 24" xml:space="preserve">
<g id="Template" display="none">
	<path id="Bounding_Box_104_" display="inline" fill="#5389A4" fill-opacity="0.502" d="M0,0h24v24H0V0z M2,2v20h20V2H2z"/>
</g>
<g id="Icons">
	<g id="Close_2">
	</g>
	<g>
		<path d="M20.6,13.1l-7.5,7.5C12.8,20.8,12.4,21,12,21c-0.4,0-0.8-0.2-1-0.4l-0.9-0.9c-0.3-0.3-0.4-0.7-0.4-1.1
			c0-0.4,0.2-0.8,0.4-1.1l3.4-3.4H5.4c-0.8,0-1.4-0.7-1.4-1.5v-1.5c0-0.8,0.5-1.5,1.4-1.5h8.1l-3.4-3.4c-0.3-0.3-0.4-0.6-0.4-1
			c0-0.4,0.2-0.8,0.4-1L11,3.4C11.2,3.2,11.6,3,12,3c0.4,0,0.8,0.2,1.1,0.4l7.5,7.5c0.3,0.3,0.4,0.6,0.4,1
			C21,12.4,20.9,12.8,20.6,13.1z"/>
	</g>
</g>
<g id="Names" display="none">
</g>
<g id="Numbers" display="none">
</g>
</svg>
