<?xml version="1.0" encoding="utf-8"?>
<!-- Generator: Adobe Illustrator 18.1.1, SVG Export Plug-In . SVG Version: 6.00 Build 0)  -->
<!DOCTYPE svg PUBLIC "-//W3C//DTD SVG 1.1//EN" "http://www.w3.org/Graphics/SVG/1.1/DTD/svg11.dtd">
<svg version="1.1" id="Layer_1" xmlns="http://www.w3.org/2000/svg" xmlns:xlink="http://www.w3.org/1999/xlink" x="0px" y="0px"
	 viewBox="0 0 40 40" enable-background="new 0 0 40 40" xml:space="preserve">
<g>
	<g>
		<rect x="8.2" y="1.5" width="6.5" height="6.5"/>
		<rect x="14.7" y="1.5" fill="#FFFFFF" width="6.5" height="6.5"/>
		<rect x="21.1" y="1.5" width="6.5" height="6.5"/>
		<rect x="27.6" y="1.5" fill="#FFFFFF" width="6.5" height="6.5"/>
		<rect x="8.2" y="7.9" fill="#FFFFFF" width="6.5" height="6.5"/>
		<rect x="14.7" y="7.9" width="6.5" height="6.5"/>
		<rect x="21.1" y="7.9" fill="#FFFFFF" width="6.5" height="6.5"/>
		<rect x="27.6" y="7.9" width="6.5" height="6.5"/>
		<rect x="8.2" y="14.4" width="6.5" height="6.5"/>
		<rect x="14.7" y="14.4" fill="#FFFFFF" width="6.5" height="6.5"/>
		<rect x="21.1" y="14.4" width="6.5" height="6.5"/>
		<rect x="27.6" y="14.4" fill="#FFFFFF" width="6.5" height="6.5"/>
		<g>
			<path d="M34.6,21.4h-27V0.8h27V21.4z M8.8,20.2h24.6V2.1H8.8V20.2z"/>
		</g>
	</g>
	<g>
		<rect x="5.4" y="0.6" width="2.4" height="38.7"/>
	</g>
</g>
</svg>
