<?xml version="1.0" encoding="utf-8"?>
<!-- Generator: Adobe Illustrator 18.1.1, SVG Export Plug-In . SVG Version: 6.00 Build 0)  -->
<!DOCTYPE svg PUBLIC "-//W3C//DTD SVG 1.1//EN" "http://www.w3.org/Graphics/SVG/1.1/DTD/svg11.dtd">
<svg version="1.1" xmlns="http://www.w3.org/2000/svg" xmlns:xlink="http://www.w3.org/1999/xlink" x="0px" y="0px"
	 viewBox="0 0 24 24" enable-background="new 0 0 24 24" xml:space="preserve">
<g id="Template" display="none">
	<path id="Bounding_Box_17_" display="inline" fill="#5389A4" fill-opacity="0.502" d="M0,0h24v24H0V0z M2,2v20h20V2H2z"/>
</g>
<g id="Icons">
	<g id="Close_2">
	</g>
	<path d="M16.4,17.6c-0.8,0-1.4-0.6-1.4-1.4c0-0.8,0.6-1.4,1.4-1.4c0.8,0,1.4,0.6,1.4,1.4
		C17.8,17,17.1,17.6,16.4,17.6z M17.8,9.3l1.8,2.3h-4.1V9.3 M7.6,17.6c-0.8,0-1.4-0.6-1.4-1.4c0-0.8,0.6-1.4,1.4-1.4
		c0.8,0,1.4,0.6,1.4,1.4C9,17,8.4,17.6,7.6,17.6z M18.2,7.9h-2.8V6H4.8C3.8,6,3,6.8,3,7.8v8.4h1.8c0,1.5,1.2,2.8,2.8,2.8
		c1.5,0,2.8-1.2,2.8-2.8h3.2c0,1.5,1.2,2.8,2.8,2.8c1.5,0,2.8-1.2,2.8-2.8H21v-4.6L18.2,7.9z"/>
</g>
<g id="Names" display="none">
</g>
<g id="Numbers" display="none">
</g>
</svg>
