<?xml version="1.0" encoding="iso-8859-1"?>
<!-- Generator: Adobe Illustrator 18.0.0, SVG Export Plug-In . SVG Version: 6.00 Build 0)  -->
<!DOCTYPE svg PUBLIC "-//W3C//DTD SVG 1.1//EN" "http://www.w3.org/Graphics/SVG/1.1/DTD/svg11.dtd">
<svg version="1.1" id="Layer_1" xmlns="http://www.w3.org/2000/svg" xmlns:xlink="http://www.w3.org/1999/xlink" x="0px" y="0px"
	 viewBox="0 0 30 30" style="enable-background:new 0 0 30 30;" xml:space="preserve">
<path d="M21.391,22.483c-1.115,0-2.017-0.907-2.017-2.017c0-1.116,0.903-2.017,2.017-2.017
	c1.113,0,2.017,0.901,2.017,2.017C23.409,21.577,22.504,22.483,21.391,22.483z M23.409,10.38l2.64,3.362h-6.002V10.38 M8.609,22.483
	c-1.114,0-2.017-0.907-2.017-2.017c0-1.116,0.904-2.017,2.017-2.017c1.113,0,2.017,0.901,2.017,2.017
	C10.626,21.577,9.721,22.483,8.609,22.483z M24.081,8.363h-4.035V5.5H4.575c-1.487,0-2.69,1.201-2.69,2.689v12.276h2.69
	c0,2.226,1.805,4.034,4.034,4.034c2.228,0,4.035-1.809,4.035-4.034h4.713c0,2.226,1.805,4.034,4.035,4.034
	c2.228,0,4.034-1.809,4.034-4.034h2.69v-6.724L24.081,8.363z"/>
</svg>
